<?xml version="1.0" encoding="utf-8"?>
<!-- Generator: Adobe Illustrator 23.0.5, SVG Export Plug-In . SVG Version: 6.00 Build 0)  -->
<svg version="1.1" id="Layer_1" xmlns="http://www.w3.org/2000/svg" xmlns:xlink="http://www.w3.org/1999/xlink" x="0px" y="0px"
	 viewBox="0 0 73 100" style="enable-background:new 0 0 73 100;" xml:space="preserve">
<style type="text/css">
	.st0{fill:#666667;}
	.st1{fill:#FEFEFE;}
	.st2{fill:#545455;}
	.st3{fill:#555556;}
	.st4{fill:#FFFFFF;}
	.st5{fill:#6ABBDC;}
	.st6{fill:#1F1E1B;}
	.st7{fill:#5D5C5D;}
	.st8{fill:#FCECEC;}
	.st9{fill:#545469;}
	.st10{fill:#575758;}
</style>
<g>
	<g>
		<g>
			<path class="st0" d="M14.9,13.9c-0.4,1.1-0.9,2.3-1.3,3.4c-0.6,1.5-0.6,1.7-0.9,2.2c-0.3,0.4-0.4,0.8-1.2,2.1l0,0l0,0
				c-1.3-0.8-1.4-0.9-1.4-0.9c-1.1-0.6-2.4-0.4-2.9-0.3c-0.5,0.1-2.3,0.4-3.3,2c-1.3,2-0.1,4.5,0.1,5c1.3,2.8,4.3,3.8,5.7,4.2
				c0.5,0.2,5.6,1.7,10.1-1.1c0.5-0.3,1.7-1.1,4.9-5.7c2.4-3.5,4.2-6,5.9-9.9c2-4.6,4.2-9.4,2.1-11.9c-1-1.2-2.6-1.6-3.6-1.8
				c-0.9-0.2-2.8-0.6-5,0.1C22.3,2,21.2,3,20.4,3.8C17.7,6.4,16.5,9.6,14.9,13.9z"/>
			<path class="st1" d="M15.4,13.5c-0.1,0.2-0.2,0.7-0.5,1.4c-0.4,1.1-2.3,5.7-2.8,6.3c-0.1,0.2-0.3,0.4-0.5,0.7
				c-0.3-0.2-0.8-0.5-1.4-0.8c0,0-0.2-0.1-0.3-0.1c-0.6-0.3-1.6-0.5-2.8-0.3c-0.3,0.1-1.8,0.4-2.8,1.8C3.1,24.5,3.9,26.7,4,27
				c0,0,0.1,0.1,0.1,0.3c1.3,2.8,4.2,3.7,5.5,4.1c0.5,0.2,5.4,1.7,9.9-1c0.5-0.3,1.6-1.1,4.7-5.5c2.4-3.4,4.1-5.9,5.8-9.7
				c2-4.5,4-9.2,2.1-11.7c-1-1.2-2.8-1.7-3.5-1.8c-0.5-0.1-2.3-0.5-4.5,0.2c-1.7,0.6-2.7,1.6-3.6,2.4C17.8,6.9,16.6,10.3,15.4,13.5z
				"/>
			<path class="st2" d="M15.8,24.2c0,0.1-1.4,0.3-2.6-0.4c-1.2-0.7-1.8-2-1.7-2.1c0.1-0.1,0.5,0.7,1.6,1.4
				C14.5,24.1,15.8,24.1,15.8,24.2z"/>
		</g>
		<g>
			<path class="st0" d="M57.5,17.5c0.1,1.2,0.3,2.4,0.4,3.6c0.2,1.6,0.2,1.8,0.4,2.4c0.1,0.5,0.2,0.9,0.6,2.3l0,0l0,0
				c1.5-0.5,1.5-0.5,1.6-0.5c1.2-0.3,2.4,0.2,2.9,0.4c0.4,0.2,2.1,1,2.7,2.7c0.8,2.3-1,4.4-1.3,4.8c-2,2.4-5.1,2.6-6.5,2.7
				c-0.6,0-5.8,0.3-9.6-3.5c-0.4-0.4-1.4-1.5-3.4-6.7c-1.5-4-2.6-6.9-3.3-11.1c-0.9-5-1.8-10.1,0.8-12.1c1.2-0.9,2.9-0.9,3.9-0.9
				c0.9,0,2.9,0.1,4.8,1.3c1.6,1,2.4,2.3,3,3.2C56.6,9.5,57,12.9,57.5,17.5z"/>
			<path class="st1" d="M57.1,17c0,0.2,0.1,0.7,0.2,1.5c0.1,1.2,0.8,6,1.2,6.8c0.1,0.2,0.2,0.5,0.4,0.8c0.4-0.1,0.9-0.3,1.6-0.4
				c0,0,0.2,0,0.3-0.1c0.6-0.1,1.7-0.1,2.7,0.4c0.3,0.2,1.7,0.9,2.2,2.5c0.8,2.2-0.6,4.1-0.7,4.3c0,0-0.1,0.1-0.2,0.2
				c-1.9,2.4-5,2.6-6.3,2.7c-0.6,0-5.7,0.3-9.3-3.4c-0.4-0.4-1.3-1.4-3.3-6.5c-1.5-3.9-2.5-6.7-3.2-10.8c-0.8-4.9-1.7-9.9,0.8-11.8
				c1.3-0.9,3.1-0.9,3.8-0.9c0.5,0,2.4,0.1,4.3,1.3c1.5,1,2.3,2.2,2.9,3.2C56.4,10,56.8,13.6,57.1,17z"/>
			<path class="st2" d="M54.2,27.3c0,0.1,1.3,0.6,2.6,0.3c1.4-0.4,2.2-1.5,2.2-1.6c-0.1-0.1-0.7,0.6-1.9,1
				C55.5,27.5,54.2,27.1,54.2,27.3z"/>
		</g>
		<g>
			<path class="st3" d="M49.9,17.6c0.2,0.2,0.4,0.2,0.5,0.2c0.9,0.2,2.3,1.7,2.9,2.7c0.7,1.1,1.5,2.8,1.1,3.1
				c-0.4,0.3-1.7-1.1-2-0.9c-0.2,0.2,0.5,0.9,1,2c0.6,1.6,0.6,3.6,0,3.8c-0.7,0.3-2.4-2.3-2.6-2.2c-0.1,0.1,0.8,1.1,0.9,2.4
				c0,1.1-0.6,1.9-0.7,2.1c-0.8,1-2,1.3-2.8,1.5c-3.4,0.6-11.6,0.5-14.4,0.5c-2,0-4.1,0-6.6-0.7c-2-0.6-5.4-1.5-6-3.8
				c-0.4-1.4,0.5-2.8,0.2-2.9c-0.3-0.1-1.2,2.6-1.8,2.4c-0.5-0.1-0.9-2.1-0.4-3.9c0.4-1.4,1.2-2.2,1-2.4c-0.3-0.3-1.8,1.3-2.2,1
				c-0.4-0.3,0.8-2.7,1-2.9c0.7-1.2,1.3-2.4,2.4-3.3c0.3-0.2,0.7-0.5,1.1-1.1c0.4-0.6,0.6-1.1,0.7-1.5c0,0,0.5-1.4,1.3-3.1
				c0.5-0.9,1.1-1.7,2.4-3.4c0.9-1.2,1.4-1.8,1.7-2.1c1.9-1.9,4.7-1.9,6.3-2c1,0,6.8-0.2,10.7,4.1c2,2.2,3.1,5,3.3,6.3
				c0.1,1,0.6,1.9,0.5,2.9C49.6,16.7,49.6,17.3,49.9,17.6z"/>
			<path class="st1" d="M49.5,17.5c0.3,0.4,0.6,0.5,0.8,0.6c0.9,0.4,1.6,1.2,2.5,2.2c0.9,1.1,1.7,2.5,1.4,2.8
				c-0.3,0.3-1.8-1-2.1-0.7c-0.2,0.2,0.3,0.9,0.8,1.9c0.6,1.5,1,3.4,0.5,3.7c-0.7,0.4-3.3-2.9-3.4-2.8c-0.1,0.1,1.2,1.3,1.2,3
				c0,1.1-0.6,1.8-0.7,2c-0.8,1-1.9,1.3-2.7,1.4C44.6,32.2,36.6,32,33.9,32c-1.9,0-3.9,0-6.4-0.7c-2.1-0.6-5-1.5-5.8-3.6
				c-0.5-1.5,0.2-3-0.1-3.1c-0.5-0.2-1.6,2.7-2.1,2.6c-0.3-0.1-0.2-2,0.3-3.7c0.5-1.6,1.1-2.5,0.8-2.7c-0.4-0.3-2.1,1.2-2.3,1
				c-0.1-0.1,0.1-0.3,1.2-2.4c0-0.1,0,0,0-0.1c0.7-1.2,1.3-2.3,2.4-3.2c0.2-0.2,0.7-0.5,1.1-1.1c0.4-0.6,0.6-1.1,0.7-1.4
				c0,0,0.5-1.3,1.3-2.9c0.4-0.9,1.1-1.7,2.4-3.3c0.9-1.1,1.4-1.7,1.6-2c1.9-1.8,4.6-1.8,6.1-1.9c1,0,6.5-0.1,10.4,4
				c1.9,2.1,3,4.8,3.2,6.1c0.1,0.9,0.6,1.9,0.5,2.8C49.2,16.6,49.2,17.1,49.5,17.5z"/>
			<g>
				<path class="st4" d="M49.4,26.4c-1.8,3.5-5.7,4.7-7,5.1c-0.8,0.2-1.6,0.4-2.1,0.5c-1.5,0.3-2.8,0.3-4.8,0.2
					c-2.9-0.1-4.4-0.2-5.7-0.5c-1.9-0.5-4.3-1-6-3.1c-1.4-1.7-1.7-3.5-1.9-4.6c-0.7-3.7,0.8-6.7,2.1-9.7c1-2,2-4.3,4.3-6.5
					c1.8-1.8,4.1-4,7.6-4.2c3.9-0.2,6.7,2.3,7.5,3c1.6,1.4,2.6,3.4,4.5,7.5c1.2,2.5,1.8,3.9,2.1,5.6C50.3,21.5,50.7,24,49.4,26.4z"
					/>
				<g>
					<g>
						<path class="st5" d="M43.2,18.5c0.4,0.7,0.6,1.9-0.2,2.8c-0.8,0.8-2,0.8-2.9,0.5c-1-0.4-1.9-1.4-1.7-2.6
							c0.1-1.1,1-2.1,2.1-2.2C41.8,16.9,42.8,17.8,43.2,18.5z"/>
					</g>
					<path class="st6" d="M42.6,19.9c-0.1,1.1-1,2.1-2.1,2.1c-1.2,0-2.1-1.2-2-2.3c0.1-1.1,1-2.1,2.1-2.1
						C41.8,17.7,42.7,18.8,42.6,19.9z"/>
				</g>
				<g>
					<g>
						<path class="st5" d="M28.1,18.4c-0.4,0.7-0.7,1.9,0.1,2.8c0.7,0.9,2,0.9,2.8,0.6c1-0.3,1.9-1.3,1.9-2.5
							c-0.1-1.1-0.9-2.1-2-2.3C29.5,16.8,28.5,17.6,28.1,18.4z"/>
					</g>
					<path class="st6" d="M28.6,19.8c0,1.1,0.9,2.1,2,2.2c1.2,0,2.1-1.1,2.1-2.2c0-1.1-0.9-2.1-2-2.2C29.5,17.6,28.6,18.7,28.6,19.8
						z"/>
				</g>
				<path class="st6" d="M33.3,18.3C33.4,18.3,33.4,18.2,33.3,18.3c0.1-0.2-0.2-0.4-0.5-0.7c-0.2-0.2-0.4-0.3-0.6-0.4
					c-0.3-0.1-0.5-0.2-0.6-0.3c-0.2-0.1-0.6-0.2-1-0.2c-0.6,0-1,0-1.2,0.1c-0.4,0.1-0.8,0.2-1.1,0.3l0,0c-0.2,0.1-0.4,0.1-0.8,0.3
					c-0.2,0.1-1.5,0.8-1.5,0.8c0,0,0.8-0.2,2.3-0.8c0.5-0.2,0.7-0.3,1-0.3c0.4-0.1,1-0.2,1.7-0.1c0.5,0.1,1,0.3,1.2,0.5
					c0.3,0.2,0.4,0.2,0.5,0.3C33,18.1,33.2,18.3,33.3,18.3z"/>
				<path class="st6" d="M37.8,18.2C37.8,18.2,37.8,18.1,37.8,18.2c-0.1-0.2,0.2-0.4,0.6-0.7c0.2-0.2,0.4-0.3,0.6-0.4
					c0.3-0.1,0.5-0.2,0.7-0.2c0.2-0.1,0.6-0.1,1.1-0.1c0.6,0,1,0.1,1.2,0.1c0.4,0.1,0.8,0.2,1.1,0.4l0,0c0.2,0.1,0.4,0.2,0.8,0.3
					c0.2,0.1,1.5,0.9,1.5,0.9c0,0-0.8-0.3-2.2-0.9c-0.5-0.2-0.7-0.3-1-0.4c-0.4-0.1-1-0.3-1.7-0.1c-0.5,0.1-1,0.3-1.3,0.4
					c-0.3,0.1-0.4,0.2-0.5,0.3C38.2,18,38,18.3,37.8,18.2z"/>
				<path class="st6" d="M37,25.2c-0.2,0.6-0.8,1-1.5,1c-0.8,0-1.5-0.6-1.6-1.3c0,0,0-0.4,0.2-0.7c0.3-0.4,0.8-0.4,1.3-0.4
					c0.5,0,1.2,0,1.5,0.5C37.2,24.7,37,25.1,37,25.2z"/>
				<path class="st6" d="M38.3,10C38.2,10,38.2,10,38.3,10c0-0.1,0.2-0.2,0.4-0.3c0.1,0,0.2-0.1,0.4-0.1c0.2,0,0.3,0,0.4,0
					c0.1,0,0.4,0,0.7,0.1c0.3,0.1,0.6,0.2,0.7,0.2c0.3,0.1,0.5,0.2,0.6,0.4l0,0c0.1,0.1,0.2,0.1,0.4,0.3c0.1,0.1,0.9,0.7,0.8,0.7
					c0,0-0.4-0.2-1.3-0.8c-0.3-0.2-0.4-0.3-0.6-0.3c-0.2-0.1-0.6-0.3-1.1-0.3c-0.3,0-0.6,0-0.8,0.1c-0.2,0-0.3,0-0.3,0.1
					C38.5,10,38.3,10.1,38.3,10z"/>
				<path class="st6" d="M32.3,10.3C32.3,10.3,32.3,10.3,32.3,10.3c0-0.1-0.1-0.2-0.4-0.3c-0.1-0.1-0.2-0.1-0.4-0.1
					c-0.2,0-0.3-0.1-0.4-0.1c-0.1,0-0.4,0-0.7,0c-0.3,0-0.6,0.1-0.8,0.2c-0.3,0.1-0.5,0.2-0.7,0.3l0,0c-0.1,0.1-0.2,0.1-0.5,0.2
					c-0.1,0.1-0.9,0.6-0.9,0.6c0,0,0.5-0.2,1.4-0.6c0.3-0.2,0.4-0.2,0.6-0.3c0.2-0.1,0.6-0.2,1.1-0.2c0.3,0,0.6,0.1,0.8,0.1
					c0.2,0.1,0.3,0.1,0.3,0.1C32.1,10.3,32.2,10.4,32.3,10.3z"/>
			</g>
			<path class="st6" d="M35.3,27.4C34.9,27.9,34.2,28,34,28c-1,0.1-1.7-0.7-1.7-0.7c0,0,0.7,0.7,1.6,0.6c0.1,0,0.7,0,1.1-0.5
				c0.2-0.2,0.3-0.5,0.4-0.9c0.1-0.4,0.1-0.7,0.1-0.7C35.5,25.8,35.7,26.7,35.3,27.4z"/>
			<path class="st6" d="M35.7,27.5c0.4,0.5,1.1,0.6,1.2,0.6c1,0.1,1.7-0.7,1.7-0.7c0,0-0.7,0.7-1.6,0.6c-0.1,0-0.7,0-1.1-0.5
				c-0.2-0.2-0.3-0.5-0.4-0.9c-0.1-0.4-0.1-0.7-0.1-0.7C35.4,25.9,35.2,26.9,35.7,27.5z"/>
		</g>
		<g>
			<path class="st7" d="M0.3,68.7c0.9,2.9,4.3,4.1,5.5,4.5c2.2,0.7,3.9,0.6,7.2,0.4c2.7-0.2,4.2-0.3,6.1-1c2.4-0.9,7.2-3.3,7.1-6
				c-0.2-3.2-7.4-5.3-11.5-5.8c-2.7-0.3-5,0-6.2,0.2c-3.2,0.5-4.8,1.4-5.5,1.8c-1.9,1.1-2.4,2.1-2.5,2.4
				C-0.2,66.8,0.2,68.3,0.3,68.7z"/>
			<path class="st1" d="M0.7,68.6c0.9,2.8,4.2,3.8,5.3,4.2c2.1,0.7,3.8,0.6,7,0.4c2.6-0.2,4.1-0.3,5.9-0.9c2.3-0.8,7-3.1,6.8-5.7
				c-0.2-3-7.2-5-11.1-5.4c-2.7-0.3-4.8,0-6,0.2c-3.1,0.5-4.7,1.3-5.3,1.7c-1.8,1.1-2.3,2-2.4,2.2C0.2,66.8,0.6,68.2,0.7,68.6z"/>
		</g>
		<g>
			<path class="st7" d="M72.2,68.1c-0.9,2.9-4.4,4-5.6,4.4c-2.2,0.7-4,0.5-7.2,0.2c-2.7-0.2-4.2-0.4-6.1-1.1c-2.3-0.9-7.2-3.5-7-6.2
				c0.2-3.2,7.5-5.2,11.6-5.6c2.8-0.3,5,0.1,6.2,0.4c3.2,0.6,4.8,1.5,5.5,2c1.9,1.2,2.3,2.2,2.4,2.4C72.8,66.2,72.4,67.7,72.2,68.1z
				"/>
			<path class="st1" d="M71.9,67.9c-0.9,2.7-4.3,3.8-5.4,4.1c-2.1,0.6-3.8,0.5-7,0.2c-2.6-0.2-4.1-0.4-5.9-1
				c-2.3-0.8-6.9-3.3-6.7-5.8c0.2-3,7.3-4.9,11.2-5.2c2.7-0.2,4.8,0.1,6,0.3c3.1,0.5,4.6,1.4,5.3,1.8c1.8,1.1,2.3,2,2.4,2.3
				C72.4,66.2,72,67.6,71.9,67.9z"/>
		</g>
	</g>
	<g>
		<ellipse class="st2" cx="35.6" cy="53.9" rx="25.1" ry="24.2"/>
		<g>
			<ellipse class="st8" cx="35.7" cy="54" rx="24.3" ry="23.4"/>
			<g>
				<path class="st2" d="M35.2,49.8c-2.6-1.6-4.3-3.2-5.4-4.3c-2.6-2.5-4.2-4.7-5.6-6.7c-1.9-2.7-2.8-4.4-2.8-4.4
					c0,0,2.4,5.6,7.4,11.1c3.7,4,6.9,5.8,7.6,6.2c2.4,1.3,4.2,1.8,7.8,2.8c7.6,2.1,12.1,1.8,13.7,1.7c0.6-0.1,2.7-0.3,2.7-0.4
					c0-0.1-1.2-0.1-2.5-0.2c-1.1,0-5.2-0.2-7-0.3c-2.3-0.2-3.9-0.7-6.8-1.5C41.4,52.8,38.5,51.9,35.2,49.8z"/>
				<path class="st2" d="M34.1,52.4c-2.7-1.6-4.5-3.3-5.7-4.4c-2.7-2.5-4.5-4.9-5.9-6.9c-2-2.8-3-4.6-3-4.5c0,0,2.6,5.9,7.9,11.4
					c4,4.2,7.3,5.9,8.1,6.4c2.5,1.3,4.4,1.8,8.2,2.8c7.9,2,12.7,1.7,14.4,1.5c0.6-0.1,2.8-0.3,2.8-0.5c0-0.1-1.2-0.1-2.6-0.1
					c-1.2,0-5.4-0.1-7.4-0.2c-2.4-0.2-4-0.6-7.1-1.5C40.7,55.4,37.7,54.5,34.1,52.4z"/>
				<path class="st2" d="M32.4,54.7c-2.7-1.8-4.4-3.5-5.6-4.7c-2.7-2.7-4.3-5.2-5.8-7.3c-2-2.9-2.8-4.8-2.9-4.7c0,0,2.4,6.1,7.6,12
					c3.9,4.4,7.2,6.3,7.9,6.8c2.5,1.4,4.4,2,8.3,3.2c8,2.4,12.8,2.2,14.6,2.1c0.6,0,2.9-0.2,2.9-0.4c0-0.1-1.3-0.2-2.6-0.2
					c-1.2-0.1-5.5-0.3-7.5-0.5c-2.4-0.3-4.1-0.8-7.2-1.8C39,58,35.9,57,32.4,54.7z"/>
				<path class="st2" d="M36.5,47.5c-2.4-1.5-4-3-5-4c-2.4-2.3-3.9-4.4-5.2-6.3c-1.8-2.5-2.6-4.1-2.6-4.1c0,0,2.2,5.3,6.9,10.3
					c3.5,3.8,6.4,5.4,7.1,5.8c2.2,1.2,3.9,1.7,7.3,2.6c7.1,1.9,11.3,1.7,12.8,1.6c0.5,0,2.5-0.2,2.5-0.4c0-0.1-1.1-0.1-2.3-0.2
					c-1.1,0-4.8-0.1-6.6-0.3c-2.2-0.2-3.6-0.6-6.3-1.4C42.3,50.2,39.6,49.4,36.5,47.5z"/>
				<path class="st2" d="M37.9,45.4c-2.2-1.4-3.7-2.8-4.7-3.8c-2.2-2.2-3.7-4.2-4.9-5.9c-1.7-2.4-2.4-3.9-2.5-3.8
					c0,0,2.1,4.9,6.5,9.7c3.3,3.5,6,5.1,6.7,5.4c2.1,1.1,3.7,1.6,6.9,2.4c6.6,1.8,10.6,1.6,12.1,1.5c0.5,0,2.4-0.2,2.4-0.4
					c0-0.1-1-0.1-2.2-0.2c-1,0-4.5-0.1-6.2-0.3c-2-0.2-3.4-0.6-5.9-1.3C43.4,48,40.8,47.3,37.9,45.4z"/>
				<path class="st2" d="M39.4,43.1c-2.1-1.2-3.5-2.5-4.5-3.3c-2.1-1.9-3.5-3.7-4.7-5.3c-1.6-2.1-2.4-3.5-2.4-3.5
					c0,0,2.1,4.5,6.3,8.7c3.1,3.2,5.7,4.5,6.3,4.8c1.9,1,3.4,1.3,6.4,2c6.2,1.5,9.8,1.1,11.1,1c0.5-0.1,2.2-0.3,2.2-0.4
					c0-0.1-1-0.1-2-0.1c-0.9,0-4.2,0-5.7-0.1C50.7,47,49.4,46.6,47,46C44.5,45.3,42.2,44.7,39.4,43.1z"/>
			</g>
			<path class="st8" d="M56.4,66.5c-0.7,0.9-1.5,2-2.7,3.2c-0.6,0.7-1.5,1.6-2.8,2.6c-0.5,0.4-2.2,1.7-4.9,2.9
				c-1.3,0.6-2.5,1-3.5,1.3c-1-2.4-4.2-9.2-11.8-13.9c-8.2-5.1-16.4-4.6-18.9-4.4c-0.3-1.3-0.3-2.5-0.4-3.4
				c-0.1-2.9,0.4-5.1,0.7-6.3c0.3-1.3,0.7-2.4,1-3.2c3-0.4,7.3-0.7,12.3,0c9.2,1.3,15.5,5.1,16.8,6C50.2,56.3,54.4,62.9,56.4,66.5z"
				/>
			<g>
				<path class="st2" d="M31.9,63.6c2,1.4,3.3,2.8,4.2,3.7c2,2.1,3.2,4,4.2,5.6c1.4,2.2,2.1,3.7,2.1,3.7c0,0-1.7-4.6-5.5-9.2
					c-2.8-3.4-5.3-4.9-5.9-5.3c-1.9-1.1-3.3-1.6-6.2-2.6c-6-2-9.7-2-11.1-1.9c-0.5,0-2.2,0.1-2.2,0.2c0,0.1,1,0.2,2,0.2
					c0.9,0.1,4.2,0.3,5.7,0.5c1.9,0.2,3.1,0.7,5.4,1.5C27,60.9,29.3,61.7,31.9,63.6z"/>
				<path class="st2" d="M33.5,61.2c2.3,1.4,3.8,2.9,4.8,3.9c2.3,2.2,3.7,4.2,4.9,6c1.7,2.4,2.5,3.9,2.5,3.9c0,0-2.1-5-6.6-9.9
					c-3.3-3.6-6.1-5.2-6.8-5.6c-2.1-1.2-3.7-1.6-7-2.5c-6.7-1.9-10.8-1.7-12.3-1.6c-0.5,0-2.4,0.2-2.4,0.4c0,0.1,1.1,0.1,2.2,0.2
					c1,0,4.6,0.2,6.3,0.3c2.1,0.2,3.4,0.6,6,1.4C27.9,58.5,30.5,59.3,33.5,61.2z"/>
				<path class="st2" d="M35.3,59c2.5,1.6,4.2,3.2,5.3,4.2c2.5,2.4,4.1,4.7,5.5,6.6c1.9,2.6,2.7,4.3,2.8,4.3c0,0-2.3-5.5-7.2-10.8
					c-3.7-4-6.7-5.7-7.5-6.1c-2.3-1.3-4.1-1.7-7.7-2.7c-7.4-2-11.9-1.8-13.5-1.7c-0.6,0-2.7,0.3-2.7,0.4c0,0.1,1.2,0.1,2.4,0.2
					c1.1,0,5.1,0.2,6.9,0.3c2.3,0.2,3.8,0.7,6.6,1.5C29.1,56.1,32,56.9,35.3,59z"/>
				<path class="st2" d="M37.2,56c2.7,1.7,4.4,3.3,5.6,4.5c2.6,2.6,4.3,4.9,5.8,7c2,2.8,2.9,4.6,2.9,4.5c0,0-2.5-5.8-7.7-11.5
					c-3.9-4.2-7.1-6-7.9-6.4c-2.4-1.3-4.3-1.8-8.1-2.9c-7.8-2.2-12.6-1.9-14.3-1.8c-0.6,0.1-2.8,0.3-2.8,0.4c0,0.1,1.2,0.1,2.6,0.2
					c1.2,0,5.4,0.2,7.3,0.3c2.4,0.2,4,0.7,7,1.6C30.7,52.9,33.7,53.8,37.2,56z"/>
				<path class="st2" d="M38.5,53.3c2.8,1.7,4.6,3.4,5.9,4.5c2.8,2.6,4.6,5,6.1,7.1c2.1,2.8,3.1,4.6,3.1,4.6c0,0-2.7-6-8.1-11.7
					c-4.1-4.2-7.5-6-8.3-6.5c-2.5-1.3-4.5-1.8-8.5-2.8c-8.1-2.1-13-1.7-14.8-1.5c-0.6,0.1-2.9,0.3-2.9,0.5c0,0.1,1.3,0.1,2.7,0.1
					c1.2,0,5.6,0.1,7.5,0.2c2.5,0.2,4.1,0.6,7.3,1.5C31.8,50.3,34.9,51.2,38.5,53.3z"/>
				<path class="st2" d="M40.4,50.5c2.9,1.6,4.9,3.3,6.2,4.5c2.9,2.6,4.9,5,6.5,7.1c2.2,2.9,3.3,4.7,3.3,4.7c0,0-2.9-6.1-8.7-11.8
					c-4.3-4.3-7.9-6-8.7-6.5c-2.7-1.3-4.7-1.8-8.8-2.7c-8.5-1.9-13.5-1.4-15.3-1.2c-0.6,0.1-3,0.4-3,0.6c0,0.1,1.3,0.1,2.7,0.1
					c1.3,0,5.7-0.1,7.8,0c2.6,0.1,4.3,0.5,7.5,1.4C33.3,47.6,36.6,48.4,40.4,50.5z"/>
			</g>
			<path class="st8" d="M19.5,71.4c-0.6-0.5-1.3-1.1-2.1-2C17,69,16,67.9,15,66.3c-0.7-1.1-1.2-2.1-1.5-2.7c-0.4-0.9-0.7-1.7-1-2.3
				c2.6-1.1,8.9-4.1,13.7-11.1c5.5-8.2,5.3-16.5,5.1-19.2c2-0.4,3.8-0.4,5.1-0.4c3.3,0.1,5.7,0.8,6.6,1.1c1.2,0.4,2.1,0.8,2.8,1.1
				c0,4-0.5,11-4.1,18.4C35.1,64.7,23,70,19.5,71.4z"/>
			<g>
				<path class="st2" d="M32.1,55.6c-1.8,2.5-3.6,4-4.8,5.1c-2.7,2.4-5.2,3.8-7.3,5.1c-2.9,1.7-4.7,2.5-4.7,2.5c0,0,6-2,11.9-6.6
					c4.4-3.4,6.5-6.5,6.9-7.2c1.5-2.3,2.2-4.1,3.5-7.7c2.7-7.5,2.8-12.1,2.8-13.7c0-0.6-0.1-2.8-0.2-2.8c-0.1,0-0.2,1.2-0.4,2.5
					c-0.1,1.2-0.6,5.2-0.9,7.1c-0.4,2.3-1,3.8-2.1,6.7C35.6,49.5,34.5,52.4,32.1,55.6z"/>
				<path class="st2" d="M34.6,56.8c-1.9,2.6-3.7,4.3-5,5.4c-2.8,2.5-5.4,4.1-7.6,5.4c-3,1.8-4.9,2.6-4.9,2.7c0,0,6.2-2.1,12.3-7.1
					c4.6-3.7,6.7-6.9,7.1-7.6c1.5-2.4,2.2-4.3,3.5-8.1c2.7-7.9,2.8-12.7,2.7-14.4c0-0.6-0.1-2.9-0.3-2.9c-0.1,0-0.2,1.2-0.3,2.6
					c-0.1,1.2-0.5,5.5-0.8,7.4c-0.4,2.4-1,4-2.1,7C38.2,50.4,37.1,53.4,34.6,56.8z"/>
				<path class="st2" d="M36.8,58.7c-2,2.6-4,4.2-5.3,5.3c-3,2.5-5.6,4-7.9,5.2c-3.1,1.7-5.1,2.5-5.1,2.5c0,0.1,6.4-1.9,12.8-6.7
					c4.8-3.5,7-6.7,7.6-7.5c1.6-2.4,2.4-4.3,3.9-8.1c3.1-7.9,3.3-12.8,3.3-14.5c0-0.6,0-2.9-0.1-3c-0.1,0-0.3,1.3-0.5,2.6
					c-0.2,1.2-0.7,5.5-1.1,7.5c-0.5,2.4-1.1,4.1-2.4,7.1C40.7,52.3,39.5,55.4,36.8,58.7z"/>
				<path class="st2" d="M29.8,54.1c-1.7,2.3-3.4,3.8-4.5,4.8c-2.5,2.2-4.9,3.6-6.8,4.8c-2.7,1.6-4.4,2.3-4.4,2.3
					c0,0,5.6-1.8,11.1-6.1c4.1-3.2,6-6,6.5-6.7c1.4-2.1,2-3.8,3.2-7.2c2.5-7,2.6-11.3,2.6-12.8c0-0.5,0-2.6-0.2-2.6
					c-0.1,0-0.2,1.1-0.3,2.3c-0.1,1.1-0.5,4.9-0.8,6.6c-0.4,2.2-0.9,3.6-2,6.3C33.1,48.4,32,51.1,29.8,54.1z"/>
				<path class="st2" d="M27.8,52.5c-1.6,2.2-3.2,3.5-4.2,4.5c-2.4,2.1-4.6,3.4-6.4,4.5c-2.6,1.5-4.1,2.2-4.1,2.2
					c0,0,5.2-1.7,10.5-5.8c3.9-3,5.7-5.7,6.1-6.3c1.3-2,1.9-3.6,3-6.8c2.4-6.5,2.5-10.6,2.5-12.1c0-0.5,0-2.4-0.2-2.4
					c-0.1,0-0.2,1-0.3,2.2c-0.1,1-0.5,4.6-0.8,6.2c-0.3,2-0.9,3.4-1.9,5.9C30.9,47.2,29.9,49.7,27.8,52.5z"/>
				<path class="st2" d="M25.6,50.7c-1.4,2-2.8,3.4-3.8,4.2c-2.1,2-4.1,3.2-5.8,4.3c-2.3,1.5-3.7,2.1-3.7,2.1c0,0,4.8-1.7,9.4-5.6
					c3.5-2.9,5-5.4,5.4-6c1.1-1.9,1.6-3.4,2.6-6.3c2-6.1,2-9.8,1.9-11.2c0-0.5-0.1-2.2-0.2-2.2c-0.1,0-0.2,1-0.2,2
					c-0.1,0.9-0.3,4.2-0.5,5.7c-0.2,1.9-0.7,3.1-1.5,5.5C28.2,45.7,27.4,48.1,25.6,50.7z"/>
			</g>
			<g>
				<path class="st9" d="M36.4,66.9c0,0.1-1.5,0.9-3.4,0.9c-2.2-0.1-3.8-1.2-3.8-1.3c0-0.1,1.4,0.7,3.7,0.9
					C34.9,67.4,36.3,66.8,36.4,66.9z"/>
				<path class="st9" d="M38.7,69.6c0,0.1-2.8,1.3-6.4,1c-4-0.3-6.8-2.4-6.7-2.5c0-0.1,2.7,1.6,6.7,2C36,70.4,38.7,69.5,38.7,69.6z"
					/>
				<path class="st9" d="M41,73.3c0,0.1-4.5,1.9-9.8,0.9c-5.1-1-8.8-4-8.8-4c0,0,1.3,0.8,3.3,1.7c1.7,0.7,3.7,1.3,6.2,1.6
					C37.2,74.1,41,73.1,41,73.3z"/>
			</g>
			<g>
				<path class="st9" d="M44.9,41.4c0.1-0.1,1.6,0.3,2.7,1.6c1.3,1.4,1.4,3.3,1.3,3.3c-0.1,0-0.4-1.4-1.6-2.9
					C46.1,42,44.8,41.5,44.9,41.4z"/>
				<path class="st9" d="M45.3,38.5c0-0.1,2.3,1,4.1,3.2c2,2.5,2.4,5.2,2.3,5.2c-0.1,0-0.6-2.4-2.6-5C47.3,39.6,45.2,38.6,45.3,38.5
					z"/>
				<path class="st9" d="M46.1,35.3c0.1-0.1,3.5,1.5,5.8,5c2.2,3.3,2.4,7,2.4,7c0,0-0.2-1.1-0.8-2.7c-0.5-1.3-1.3-2.7-2.4-4.3
					C48.7,37,46.1,35.4,46.1,35.3z"/>
			</g>
			<g>
				<path class="st9" d="M15.2,45.1c-0.1,0,0-1.7,1.1-3.1c1.2-1.6,3-2.1,3.1-2c0.1,0.1-1.4,0.6-2.6,2.2
					C15.6,43.7,15.3,45.1,15.2,45.1z"/>
				<path class="st9" d="M17.9,44.9c-0.1,0,0-1,0.6-1.9c0.7-1,1.9-1.3,1.9-1.2c0,0.1-0.8,0.4-1.6,1.4C18.1,44,17.9,44.9,17.9,44.9z"
					/>
			</g>
		</g>
	</g>
	<g>
		<g>
			<path class="st10" d="M61.5,40.2c0,1.3,0,3.5-1.5,5.5c-2.2,3.1-5.9,3.3-6.5,3.3c-0.5,0-4.3,0.2-6.3-2.4c-1-1.4-1.3-3-1.3-3.5
				c-0.2-1.1,0-2.1,0.1-3.3c0.1-1.1,0.4-1.9,0.5-2.3c0.2-0.7,0.3-1.2,0.6-1.8c0.4-1,0.6-1.5,1-1.8c0.2-0.2,0.4-0.4,0.4-0.6
				c-0.1-0.1-0.3-0.2-0.7-0.2c-1.1-0.2-1.2-0.2-1.2-0.2c0-0.2,1-0.4,2.6-1.2c1.3-0.6,1.5-0.9,1.7-1.2c0.2-0.3,0.2-0.7,0.5-0.7
				c0.3-0.1,0.4,0.2,0.9,0.5c0.5,0.3,0.9,0.3,1.5,0.4c0,0,0.7,0.1,2.4,0.7c2.4,0.9,4,3.5,4.1,3.8C61.5,37.1,61.5,39.2,61.5,40.2z"/>
			<path class="st1" d="M61.1,40.2c0,1.3,0,3.4-1.4,5.3c-2.1,2.9-5.7,3.1-6.2,3.2c-0.5,0-4.1,0.2-6.1-2.3c-1-1.3-1.2-2.9-1.3-3.4
				c-0.1-1.1,0-2,0.1-3.2c0.1-1,0.4-1.8,0.5-2.2c0.2-0.7,0.3-1.1,0.6-1.8c0.5-1.2,0.9-1.8,0.9-1.8c0.3-0.4,0.5-0.7,0.4-0.9
				c0-0.1-0.1-0.1-0.6-0.2c0,0-0.5-0.1-1.1-0.2l0,0c0,0,1-0.4,2.1-0.9c0,0,0.7-0.3,1.6-1c0.1-0.1,0.3-0.2,0.4-0.4
				c0.2-0.3,0.1-0.5,0.2-0.6c0.2-0.1,0.5,0.3,0.9,0.6c0.3,0.2,0.7,0.4,1.4,0.4c0,0,0.6,0.1,2.3,0.7c2.3,0.8,3.8,3.4,4,3.6
				C61.1,37.1,61.1,39.2,61.1,40.2z"/>
		</g>
		<g>
			<path class="st10" d="M12.2,39.8c0,1.4,0.1,3.6,1.7,5.6c2.3,3.1,6.2,3.2,6.7,3.2c0.6,0,4.4,0.1,6.4-2.7c1-1.4,1.2-3.1,1.3-3.7
				c0.1-1.2,0-2.2-0.2-3.4c-0.2-1.1-0.4-1.9-0.6-2.4c-0.2-0.7-0.4-1.2-0.7-1.9c-0.5-1-0.7-1.5-1.1-1.8c-0.2-0.2-0.5-0.4-0.4-0.6
				c0-0.1,0.3-0.2,0.7-0.3c1.1-0.2,1.2-0.2,1.2-0.3c0-0.2-1-0.4-2.7-1.2c-1.3-0.6-1.6-0.9-1.8-1.2c-0.2-0.3-0.3-0.7-0.5-0.7
				c-0.3-0.1-0.5,0.3-0.9,0.5c-0.5,0.3-0.9,0.3-1.5,0.4c0,0-0.7,0.1-2.5,0.8c-2.4,1-4,3.7-4.1,4C12.1,36.6,12.1,38.8,12.2,39.8z"/>
			<path class="st1" d="M12.5,39.8c0,1.3,0.1,3.4,1.6,5.4c2.2,2.9,5.9,3.1,6.4,3.1c0.5,0,4.2,0.1,6.2-2.6c1-1.4,1.2-3,1.2-3.5
				c0.1-1.1,0-2.1-0.2-3.2c-0.2-1.1-0.4-1.9-0.5-2.3c-0.2-0.7-0.4-1.2-0.6-1.8c-0.6-1.2-1-1.8-1-1.8c-0.3-0.4-0.5-0.7-0.4-1
				c0-0.1,0.1-0.1,0.6-0.3c0,0,0.6-0.2,1.1-0.3l0,0c0,0-1.1-0.3-2.2-0.8c0,0-0.7-0.3-1.7-1c-0.1-0.1-0.3-0.2-0.4-0.4
				c-0.2-0.3-0.1-0.6-0.3-0.6c-0.2-0.1-0.5,0.3-0.9,0.6c-0.3,0.2-0.7,0.4-1.4,0.4c0,0-0.6,0.1-2.4,0.8c-2.3,0.9-3.8,3.6-4,3.8
				C12.5,36.7,12.5,38.8,12.5,39.8z"/>
		</g>
	</g>
</g>
<g>
	<path class="st2" d="M23.3,88.6c-0.1,0.1-0.2,0.2-0.4,0.2c0,0-0.1,0-0.1,0c-0.1-0.3-0.2-0.7-0.3-1.2s-0.1-0.9-0.1-1.1
		c-0.6,0-1.3,0-1.9,0c-0.6,0-1.2,0-1.7,0.1c-0.1,0.2-0.1,0.6-0.2,1.1s-0.1,0.8-0.1,1c-0.2,0.2-0.4,0.2-0.6,0.1c0-0.1,0-0.4,0.1-0.7
		c0-0.3,0.1-0.6,0.1-0.8c0-0.2,0.1-0.5,0.1-0.8c0.1-0.3,0.1-0.6,0.2-0.8s0.1-0.5,0.2-0.8s0.2-0.5,0.3-0.8c0.1-0.2,0.2-0.4,0.3-0.6
		s0.3-0.4,0.4-0.5c0.4-0.3,0.8-0.4,1.2-0.4s0.8,0.2,1.1,0.5c0.3,0.3,0.5,0.8,0.6,1.3c0.1,0.5,0.3,1.1,0.4,1.6
		c0.1,0.5,0.2,1.1,0.3,1.7C23.2,87.9,23.3,88.3,23.3,88.6z M21.7,83.7c-0.1-0.3-0.3-0.5-0.4-0.7c-0.2-0.2-0.4-0.2-0.7-0.2
		s-0.5,0.1-0.7,0.4s-0.4,0.6-0.6,0.9c-0.3,0.7-0.4,1.3-0.5,1.9c0.6-0.1,1.2-0.1,1.8-0.1c0.6,0,1.2,0,1.7,0.1c0-0.1-0.1-0.3-0.1-0.6
		C22.1,85,22,84.7,22,84.5C21.9,84.2,21.8,84,21.7,83.7z"/>
	<path class="st2" d="M24.5,84.8c0.1,0,0.1,0.4,0.1,1.2c0,0.1,0,0.3,0,0.6s0,0.4,0,0.4c0.1-0.7,0.1-1.1,0.2-1.4s0.1-0.4,0.2-0.6
		s0.1-0.3,0.2-0.4c0.2-0.2,0.4-0.4,0.6-0.4c0.3,0,0.5,0.2,0.7,0.5c0.2,0.3,0.2,0.7,0.2,1.2c0.1-1.1,0.5-1.6,1.2-1.6
		c0.3,0,0.5,0.1,0.6,0.4s0.2,0.6,0.2,1l0,1.3c0,0.9,0.2,1.3,0.6,1.3l0.5-0.1c0,0,0.1,0,0.1,0c-0.1,0.1-0.2,0.2-0.3,0.2
		s-0.3,0.1-0.5,0.1c-0.3,0-0.5-0.1-0.7-0.4c-0.1-0.3-0.2-0.5-0.2-0.8c0-0.3,0-0.5,0-0.8l0-0.8c0-0.3,0-0.5,0-0.7s-0.1-0.4-0.3-0.4
		c-0.2,0-0.4,0.4-0.6,1.3c-0.2,0.8-0.3,1.6-0.3,2.4c-0.1,0.1-0.2,0.2-0.4,0.2c0,0-0.1,0-0.1,0c-0.1-0.3-0.1-0.8-0.1-1.5
		c0-0.7,0-1.3-0.1-1.7s-0.2-0.6-0.5-0.6c-0.2,0-0.3,0.2-0.4,0.5c-0.2,0.6-0.3,1.5-0.5,2.7c0,0.3-0.1,0.5-0.1,0.6
		c-0.1,0.1-0.2,0.2-0.4,0.2l-0.1,0c-0.1-1-0.1-2.2-0.1-3.6C24.2,84.8,24.3,84.8,24.5,84.8z"/>
	<path class="st2" d="M30.6,82.1c0,0.1,0,0.3,0,0.4s0,0.3,0,0.5c-0.1,0.1-0.2,0.1-0.3,0.1c-0.2,0-0.3-0.1-0.3-0.4c0,0,0-0.1,0-0.1
		c0-0.1,0-0.1,0-0.2s0-0.1,0-0.2c0-0.1,0.1-0.2,0.3-0.2S30.6,82.1,30.6,82.1z M30,86.4c0-1.1,0.1-1.8,0.2-2c0-0.1,0.1-0.1,0.1-0.1
		s0.2,0,0.3,0.1c0,0.5,0,1,0,1.6l0,1.9c0,0.2,0,0.3-0.1,0.4s-0.2,0.1-0.2,0.1s-0.1,0-0.2-0.1C30,87.7,30,87,30,86.4z"/>
	<path class="st2" d="M33.3,84.2c0.5,0,0.9,0.2,1.1,0.6c0.1,0.2,0.2,0.4,0.3,0.7s0.1,0.5,0.1,0.8c0,0.5,0.1,1.2,0.1,1.9
		c0,0.7-0.2,1.2-0.5,1.7s-0.8,0.6-1.4,0.6s-1.2-0.2-1.6-0.6c0.1-0.1,0.2-0.2,0.4-0.2c0.1,0,0.3,0.1,0.6,0.2c0.2,0.1,0.5,0.2,0.8,0.2
		s0.5-0.1,0.7-0.2s0.3-0.3,0.4-0.5c0.1-0.4,0.2-0.9,0.2-1.5c0-0.1,0-0.4,0-1c-0.2,0.5-0.4,0.9-0.7,1.2c-0.3,0.3-0.6,0.5-1,0.5
		S32,88.4,31.8,88c-0.2-0.3-0.3-0.7-0.3-1.1s0.1-0.8,0.2-1.2c0.1-0.4,0.3-0.7,0.6-1C32.6,84.4,32.9,84.2,33.3,84.2z M32.3,85.5
		c-0.1,0.3-0.1,0.5-0.2,0.7c0,0.2-0.1,0.5-0.1,0.7c0,0.2,0,0.5,0.1,0.8c0.1,0.3,0.2,0.4,0.4,0.4c0.4,0,0.7-0.3,1-0.8
		c0.3-0.6,0.4-1.1,0.4-1.7c0-0.2-0.1-0.4-0.3-0.7c-0.2-0.2-0.4-0.4-0.7-0.4c-0.2,0-0.4,0.1-0.5,0.3C32.5,85.1,32.4,85.3,32.3,85.5z"
		/>
	<path class="st2" d="M36.5,84.5c-0.2,0.3-0.2,0.7-0.2,1.3c0,0.9,0.2,1.5,0.5,2c0.2,0.3,0.4,0.4,0.7,0.4s0.5-0.1,0.6-0.4
		c0.2-0.3,0.3-0.8,0.3-1.4c0-0.7-0.1-1.3-0.3-1.7c-0.1-0.2-0.1-0.3-0.2-0.4c0-0.1,0-0.1,0.1-0.2s0.1-0.1,0.3-0.1
		c0.4,0,0.6,0.4,0.7,1.1c0,0.2,0.1,0.4,0.1,0.6c0,0.5-0.1,1.1-0.3,1.6c-0.3,0.7-0.8,1.1-1.4,1.1c-0.3,0-0.6-0.1-0.9-0.4
		c-0.5-0.5-0.7-1.2-0.7-2.2c0-0.4,0-0.7,0.1-1s0.1-0.4,0.1-0.4s0.1-0.1,0.1-0.2c0.1-0.1,0.1-0.1,0.2-0.1
		C36.4,84.4,36.4,84.4,36.5,84.5z"/>
	<path class="st2" d="M40.7,87.7l0,0.5c0,0.1,0,0.2-0.1,0.3s-0.1,0.1-0.2,0.1s-0.1,0-0.2,0C40,87.9,40,87,39.9,86
		c-0.1-1-0.1-1.6-0.1-1.7c0.1-0.1,0.2-0.1,0.3-0.1s0.2,0,0.3,0c0,0.2,0,0.5,0.1,1.1s0,0.9,0,1.1c0.1-0.5,0.2-1,0.4-1.4
		c0.1-0.2,0.3-0.4,0.5-0.6s0.4-0.2,0.6-0.2s0.4,0.1,0.6,0.3s0.3,0.4,0.3,0.5c0,0.1,0,0.1-0.1,0.1s-0.1,0-0.2,0s-0.2,0-0.2-0.1
		s-0.1-0.1-0.1-0.2s-0.1-0.2-0.1-0.2s-0.1-0.1-0.2-0.1c-0.3,0-0.5,0.2-0.7,0.7C40.8,86.1,40.7,86.9,40.7,87.7z"/>
	<path class="st2" d="M44.1,84.5c-0.2,0.3-0.2,0.7-0.2,1.3c0,0.9,0.2,1.5,0.5,2c0.2,0.3,0.4,0.4,0.7,0.4s0.5-0.1,0.6-0.4
		c0.2-0.3,0.3-0.8,0.3-1.4c0-0.7-0.1-1.3-0.3-1.7c-0.1-0.2-0.1-0.3-0.2-0.4c0-0.1,0-0.1,0.1-0.2s0.1-0.1,0.3-0.1
		c0.4,0,0.6,0.4,0.7,1.1c0,0.2,0.1,0.4,0.1,0.6c0,0.5-0.1,1.1-0.3,1.6c-0.3,0.7-0.8,1.1-1.4,1.1c-0.3,0-0.6-0.1-0.9-0.4
		c-0.5-0.5-0.7-1.2-0.7-2.2c0-0.4,0-0.7,0.1-1s0.1-0.4,0.1-0.4s0.1-0.1,0.1-0.2c0.1-0.1,0.1-0.1,0.2-0.1
		C43.9,84.4,44,84.4,44.1,84.5z"/>
	<path class="st2" d="M47.8,84.8c0.1,0,0.1,0.4,0.1,1.2c0,0.1,0,0.3,0,0.6s0,0.4,0,0.4c0.1-0.7,0.1-1.1,0.2-1.4s0.1-0.4,0.2-0.6
		s0.1-0.3,0.2-0.4c0.2-0.2,0.4-0.4,0.7-0.4c0.3,0,0.5,0.2,0.7,0.5c0.2,0.3,0.2,0.7,0.2,1.2c0.1-1.1,0.5-1.6,1.2-1.6
		c0.3,0,0.5,0.1,0.6,0.4s0.2,0.6,0.2,1l0,1.3c0,0.9,0.2,1.3,0.6,1.3l0.5-0.1c0,0,0.1,0,0.1,0c-0.1,0.1-0.2,0.2-0.3,0.2
		c-0.2,0-0.3,0.1-0.5,0.1c-0.3,0-0.5-0.1-0.7-0.4s-0.2-0.5-0.2-0.8c0-0.3,0-0.5,0-0.8l0-0.8c0-0.3,0-0.5,0-0.7s-0.1-0.4-0.3-0.4
		c-0.2,0-0.4,0.4-0.6,1.3c-0.2,0.8-0.3,1.6-0.3,2.4c-0.1,0.1-0.2,0.2-0.4,0.2c0,0-0.1,0-0.1,0c-0.1-0.3-0.1-0.8-0.1-1.5
		c0-0.7,0-1.3-0.1-1.7c-0.1-0.4-0.2-0.6-0.5-0.6c-0.2,0-0.3,0.2-0.4,0.5c-0.2,0.6-0.3,1.5-0.5,2.7c0,0.3-0.1,0.5-0.1,0.6
		c-0.1,0.1-0.2,0.2-0.4,0.2l-0.1,0c-0.1-1-0.1-2.2-0.1-3.6C47.5,84.8,47.6,84.8,47.8,84.8z"/>
	<path class="st2" d="M53.9,82.1c0,0.1,0,0.3,0,0.4s0,0.3,0,0.5c-0.1,0.1-0.2,0.1-0.3,0.1c-0.2,0-0.3-0.1-0.3-0.4c0,0,0-0.1,0-0.1
		c0-0.1,0-0.1,0-0.2s0-0.1,0-0.2c0-0.1,0.1-0.2,0.3-0.2C53.7,82.1,53.8,82.1,53.9,82.1z M53.3,86.4c0-1.1,0.1-1.8,0.2-2
		c0-0.1,0.1-0.1,0.1-0.1s0.2,0,0.3,0.1c0,0.5,0,1,0,1.6l0,1.9c0,0.2,0,0.3-0.1,0.4s-0.2,0.1-0.2,0.1s-0.1,0-0.2-0.1
		C53.3,87.7,53.3,87,53.3,86.4z"/>
	<path class="st2" d="M25.6,93.3c0-0.3,1-0.4,3-0.4c0.5,0,1.1,0,1.8,0.1s1.1,0.1,1.1,0.2c0,0.3-0.3,0.4-0.7,0.4c-0.1,0-0.4,0-0.7,0
		c-0.3,0-0.6,0-0.8,0c-0.2,0-0.3,0-0.3,0.1c0,1.3,0,3.1-0.1,5.6c-0.1,0.1-0.3,0.1-0.5,0.1c0-0.3,0-0.6,0-0.9l0-3.8
		c0-0.5,0-0.8,0-1.2c-0.1,0-0.3,0-0.5,0s-0.5,0-0.9,0c-0.4,0-0.7,0-0.9,0C25.8,93.5,25.6,93.4,25.6,93.3z"/>
	<path class="st2" d="M31.8,92.8c0.1-0.1,0.2-0.2,0.4-0.2c0,0,0.1,0,0.1,0c0,0.3,0,1.2,0,2.6c0,0,0,0,0.1-0.1s0.1-0.1,0.1-0.1
		s0,0,0.1-0.1s0.1-0.1,0.1-0.1s0.1,0,0.1-0.1s0.1-0.1,0.1-0.1s0.1,0,0.1,0c0.1,0,0.2,0,0.3,0c0.4,0,0.8,0.2,1,0.5s0.4,0.8,0.4,1.2
		c0,0.4-0.1,0.9-0.2,1.3c-0.1,0.4-0.3,0.8-0.6,1c-0.3,0.3-0.6,0.4-1,0.4c-0.4,0-0.7-0.1-0.9-0.4s-0.4-0.6-0.4-0.9c0-0.4,0-1,0.1-2
		c0-1,0.1-1.6,0.1-2.1C31.8,93.4,31.8,93.1,31.8,92.8z M33,98.8c0.2,0,0.4-0.1,0.6-0.3c0.4-0.4,0.6-1,0.6-1.8c0-0.4-0.1-0.8-0.2-1.1
		c-0.2-0.3-0.4-0.5-0.7-0.5c-0.2,0-0.3,0.1-0.4,0.3s-0.2,0.4-0.3,0.7c-0.1,0.5-0.2,1.1-0.2,1.7c0,0.5,0.1,0.9,0.3,1
		C32.7,98.7,32.9,98.8,33,98.8z"/>
	<path class="st2" d="M36.2,92.7c0,0.1,0,0.3,0,0.4s0,0.3,0,0.5c-0.1,0.1-0.2,0.1-0.3,0.1c-0.2,0-0.3-0.1-0.3-0.4c0,0,0-0.1,0-0.1
		c0-0.1,0-0.1,0-0.2s0-0.1,0-0.2c0-0.1,0.1-0.2,0.3-0.2C36.1,92.6,36.2,92.6,36.2,92.7z M35.7,97c0-1.1,0.1-1.8,0.2-2
		c0-0.1,0.1-0.1,0.1-0.1s0.2,0,0.3,0.1c0,0.5,0,1,0,1.6l0,1.9c0,0.2,0,0.3-0.1,0.4s-0.2,0.1-0.2,0.1s-0.1,0-0.2-0.1
		C35.7,98.2,35.7,97.6,35.7,97z"/>
	<path class="st2" d="M37.7,93.9c0-0.6-0.1-1-0.2-1.2c0.1-0.1,0.2-0.2,0.4-0.2c0,0,0.1,0,0.1,0c0.1,0.1,0.2,0.6,0.2,1.3
		c0,0.4,0,0.8-0.1,1.3C38,96,38,96.7,38,97.1c0,1.1,0.2,1.7,0.6,1.7l0.3-0.1c0.1,0,0.1,0,0.1,0.1c0,0.2-0.2,0.3-0.5,0.3
		c-0.3,0-0.6-0.1-0.8-0.3c-0.2-0.2-0.3-0.4-0.3-0.7s-0.1-0.5-0.1-0.7s0-0.4,0-0.6s0-0.6,0.1-1C37.6,94.8,37.7,94.2,37.7,93.9z"/>
	<path class="st2" d="M40.1,92.7c0,0.1,0,0.3,0,0.4s0,0.3,0,0.5c-0.1,0.1-0.2,0.1-0.3,0.1c-0.2,0-0.3-0.1-0.3-0.4c0,0,0-0.1,0-0.1
		c0-0.1,0-0.1,0-0.2s0-0.1,0-0.2c0-0.1,0.1-0.2,0.3-0.2C40,92.6,40.1,92.6,40.1,92.7z M39.5,97c0-1.1,0.1-1.8,0.2-2
		c0-0.1,0.1-0.1,0.1-0.1s0.2,0,0.3,0.1c0,0.5,0,1,0,1.6l0,1.9c0,0.2,0,0.3-0.1,0.4s-0.2,0.1-0.2,0.1s-0.1,0-0.2-0.1
		C39.5,98.2,39.5,97.6,39.5,97z"/>
	<path class="st2" d="M43.4,95.6c-0.1-0.1-0.2-0.2-0.3-0.3c-0.1-0.1-0.3-0.1-0.5-0.1s-0.4,0.1-0.6,0.2s-0.3,0.3-0.3,0.5
		s0.1,0.4,0.3,0.5s0.4,0.2,0.6,0.3c0.3,0.1,0.5,0.1,0.8,0.2s0.5,0.2,0.7,0.4c0.2,0.2,0.3,0.4,0.3,0.7c0,0.4-0.2,0.7-0.5,0.9
		c-0.3,0.2-0.7,0.3-1.2,0.3c-0.3,0-0.6-0.1-1.1-0.2s-0.7-0.3-0.7-0.5c0-0.2,0.1-0.2,0.4-0.2c0.1,0,0.2,0,0.3,0.1
		c0.4,0.3,0.8,0.4,1.2,0.4c0.2,0,0.4,0,0.5-0.1c0.3-0.1,0.4-0.4,0.4-0.6c0-0.2-0.1-0.3-0.3-0.4s-0.4-0.2-0.7-0.3
		c-0.3-0.1-0.5-0.1-0.8-0.2s-0.5-0.2-0.7-0.4s-0.3-0.4-0.3-0.7c0-0.4,0.2-0.6,0.5-0.9c0.3-0.2,0.7-0.3,1.2-0.3
		c0.3,0,0.6,0.1,0.9,0.3s0.4,0.4,0.4,0.7c0,0.2-0.1,0.3-0.4,0.3c-0.1,0-0.2,0-0.2-0.1s0-0.1-0.1-0.2C43.5,95.7,43.4,95.7,43.4,95.6z
		"/>
	<path class="st2" d="M45.7,92.7c0,0.1,0,0.3,0,0.4s0,0.3,0,0.5c-0.1,0.1-0.2,0.1-0.3,0.1c-0.2,0-0.3-0.1-0.3-0.4c0,0,0-0.1,0-0.1
		c0-0.1,0-0.1,0-0.2s0-0.1,0-0.2c0-0.1,0.1-0.2,0.3-0.2C45.5,92.6,45.6,92.6,45.7,92.7z M45.1,97c0-1.1,0.1-1.8,0.2-2
		c0-0.1,0.1-0.1,0.1-0.1s0.2,0,0.3,0.1c0,0.5,0,1,0,1.6l0,1.9c0,0.2,0,0.3-0.1,0.4s-0.2,0.1-0.2,0.1s-0.1,0-0.2-0.1
		C45.1,98.2,45.1,97.6,45.1,97z"/>
</g>
</svg>
