<?xml version="1.0" encoding="utf-8"?>
<!-- Generator: Adobe Illustrator 23.0.5, SVG Export Plug-In . SVG Version: 6.00 Build 0)  -->
<svg version="1.1" id="Capa_1" xmlns="http://www.w3.org/2000/svg" xmlns:xlink="http://www.w3.org/1999/xlink" x="0px" y="0px"
	 viewBox="0 0 200 129.9" style="enable-background:new 0 0 200 129.9;" xml:space="preserve">
<style type="text/css">
	.st0{fill:#545455;}
</style>
<path class="st0" d="M199.4,66.9c0,0,0-0.1,0-0.1c-0.1-2.5-2.1-4.5-4.6-4.5h-1.2l-18.6-35.9c-0.8-1.5-2.3-2.5-4.1-2.5l-31.7,0
	l1.2-9.6c0.3-3.8-0.8-7.4-3.3-10.2c-2.5-2.7-6-4.2-9.8-4.2H29.1c-2.5,0-4.6,1.9-4.8,4.4l-1,7.9h56c3.6,0,6.5,2.9,6.4,6.6
	c-0.1,3.6-3.1,6.6-6.8,6.6H60.3c0,0,0,0,0,0H5.4c-2.6,0-4.7,2.1-4.8,4.7c-0.1,2.6,2,4.7,4.5,4.7h72.7c3.4,0.5,5.9,3.4,5.8,7
	c-0.1,3.9-3.3,7-7.2,7.1H26.4c-2.6,0-4.8,2.1-4.8,4.7c-0.1,2.6,2,4.7,4.6,4.7h49.5c3.4,0.5,6,3.4,5.9,7c-0.1,3.9-3.3,7.1-7.2,7.1
	H17.5v0h-4.8c-2.6,0-4.8,2.1-4.8,4.7c-0.1,2.6,2,4.7,4.6,4.7h4.1L15,98.5c-0.3,3.8,0.8,7.4,3.3,10.2c2.5,2.7,6,4.2,9.8,4.2h3.6
	c1.7,9.7,10.1,17,20.3,17s19-7.3,21.2-17h44.3c3.6,0,7-1.4,9.6-3.6c2.4,2.3,5.7,3.6,9.2,3.6h0.7c1.7,9.7,10.1,17,20.3,17
	c10.2,0,19-7.3,21.2-17h2.9c7.6,0,14.4-6.2,15.1-13.8l2.9-31.8c0,0,0-0.1,0-0.1c0-0.1,0-0.1,0-0.2C199.4,67,199.4,67,199.4,66.9z
	 M52.2,120.5c-6.5,0-11.6-5.3-11.5-11.8c0.2-6.5,5.6-11.8,12.1-11.8s11.6,5.3,11.5,11.8C64.1,115.3,58.7,120.5,52.2,120.5z
	 M157.6,120.5c-6.5,0-11.6-5.3-11.5-11.8c0.2-6.5,5.6-11.8,12.1-11.8c6.5,0,11.6,5.3,11.5,11.8C169.5,115.3,164.1,120.5,157.6,120.5
	z M187.2,98.5c-0.2,2.7-2.7,5-5.4,5h-3.2c-2.1-9.2-10.2-15.9-20.1-15.9c-9.9,0-18.4,6.8-20.9,15.9h-1c-1.2,0-2.3-0.4-3-1.3
	c-0.7-0.8-1.1-1.9-1-3.1l5.9-65.7l13.6,0L150,57.3c-0.3,3.8,0.8,7.4,3.3,10.2c2.5,2.7,6,4.2,9.8,4.2h26.5L187.2,98.5z"/>
</svg>
